<svg xmlns="http://www.w3.org/2000/svg" width="260" height="260"><path fill="#667EEA" fill-rule="nonzero" d="M176.519 169c12.507 0 26.215-6.908 41.121-20.723 14.907-13.815 22.36-23.726 22.36-29.732 0-2.746-1.028-5.149-3.084-7.208-2.056-2.06-4.455-3.09-7.196-3.09-2.228 0-4.198.515-5.912 1.545-1.713 1.03-5.054 4.72-10.023 11.07-13.707 17.504-26.643 26.257-38.808 26.257-4.113 0-8.267-1.244-12.465-3.733-4.198-2.488-14.95-11.713-32.255-27.673-10.794-9.782-19.618-16.347-26.472-19.693C96.931 92.673 89.992 91 82.967 91c-8.395 0-17.048 2.703-25.958 8.109-8.91 5.406-19.018 15.145-30.327 29.218C22.227 133.99 20 138.195 20 140.94c0 2.917.985 5.363 2.956 7.336 1.97 1.974 4.412 2.96 7.324 2.96a9.2 9.2 0 004.755-1.287c1.456-.858 4.669-4.118 9.638-9.782 10.452-12.185 18.676-19.993 24.673-23.425 4.455-2.746 9.166-4.12 14.135-4.12 4.112 0 8.696 1.46 13.75 4.377 5.055 2.917 12.465 9.01 22.232 18.277 14.563 13.73 25.786 22.782 33.668 27.159 7.881 4.376 15.677 6.564 23.388 6.564z"/></svg>
